<svg width="42" height="42" viewBox="0 0 42 42" fill="none" xmlns="http://www.w3.org/2000/svg">
<path d="M28.1367 40.2217L21.2351 33.3201C22.025 33.4806 22.8359 33.5696 23.6609 33.5696C24.3904 33.5696 25.1163 33.5042 25.8246 33.3764L32.3449 39.8967L34.1232 38.1183L28.5543 32.5494C29.5654 32.1097 30.5142 31.5352 31.3729 30.836L36.9726 36.4356L38.7509 34.6572L31.4162 27.322L30.5263 28.2145C29.2631 29.4822 27.6779 30.3701 25.9333 30.7831C25.1953 30.9627 24.4306 31.0543 23.6599 31.0543C19.8698 31.0543 16.4052 28.8327 14.8301 25.3888C14.2435 24.1235 13.9457 22.7627 13.9457 21.3451C13.9457 20.5759 14.0358 19.8072 14.2123 19.0642C14.6314 17.3271 15.5228 15.742 16.7906 14.4788C18.3541 12.9192 20.4096 11.9312 22.5849 11.6918L22.6749 11.6842C23.261 11.6203 24.0583 11.6203 24.6439 11.6842L24.7345 11.6918C26.9198 11.9327 28.9748 12.9203 30.5263 14.4762L31.4162 15.3682L39.6393 7.14455L38.7509 6.25513C34.7234 2.22154 29.3637 0 23.6599 0C17.9607 0 12.5995 2.21902 8.56442 6.24859L7.674 7.13801L14.1686 13.6326C13.4698 14.4898 12.8943 15.4376 12.4521 16.4478L6.8867 10.8828L5.10836 12.6612L11.6221 19.1754C11.4948 19.8907 11.4304 20.6182 11.4304 21.3456C11.4304 22.1661 11.5134 22.971 11.6708 23.7568L4.77834 16.8643L3 18.6426L26.3574 42L28.1367 40.2217ZM11.2619 7.16819C14.6978 4.15885 19.0539 2.51533 23.6604 2.51533C28.27 2.51533 32.6251 4.16036 36.055 7.17222L31.3724 11.8548C29.5398 10.3657 27.2951 9.42797 24.9317 9.18297L24.8527 9.17693C24.1227 9.10248 23.2036 9.10248 22.4722 9.17643L22.3892 9.18297C20.0348 9.42646 17.7897 10.3652 15.9504 11.8563L11.2619 7.16819Z" fill="white"/>
<path d="M19.8018 39.9752L5.03127 25.2052L3.25293 26.9835L18.0235 41.7536L19.8018 39.9752Z" fill="white"/>
</svg>
